# xmcd CD database file generated by OrangeCD 6.4
#
# Track frame offsets:
#	150
#	35945
#	53677
#	78932
#	149699
#	174008
#	179102
#	194078
#	212775
#	270467
#	324301
#
# Disc length: 4563 seconds
#
# Revision: 0
# Processed by: cddbd v1.5.2PL0 Copyright (c) Steve Scherf et al.
# Submitted via: OrangeCD 6.4
#
DISCID=a511d10b
DTITLE=Jimi Hendrix and Friends - Jammin' With Jimi
DYEAR=2008
DGENRE=Blues Rock
TTITLE0=Jam inc. Message To Love/Train Kept A Rollin/Power Of Soul...
TTITLE1=Jam Pt.2 inc. Earth Blues/Hear My Train A Comin'
TTITLE2=Jam Pt.3 inc. Voodoo Chile
TTITLE3=Jam Pt.4 Express Horns Jam
TTITLE4=Izabella/Machine Gun Jam
TTITLE5=Univibe Jam
TTITLE6=Message To Love
TTITLE7=Mannish Boy
TTITLE8=Mannish Boy/Izabella/You Make Me Feel
TTITLE9=The Dance
TTITLE10=Izabella
EXTD=
EXTT0=
EXTT1=
EXTT2=
EXTT3=
EXTT4=
EXTT5=
EXTT6=
EXTT7=
EXTT8=
EXTT9=
EXTT10=
PLAYORDER=
